<svg xmlns="http://www.w3.org/2000/svg" viewBox="0 0 200 180">
  <!-- 原创插画 · 女儿看手机，手机上一颗心飘出来（爸爸那边一切都好）。与 scene-grandpa 同一画风。 -->
  <rect x="100" y="10" width="88" height="92" rx="44" fill="#fff" fill-opacity=".55"/>
  <!-- 飘出的对话泡与心 -->
  <path d="M132 30 h40 a10 10 0 0 1 10 10 v16 a10 10 0 0 1 -10 10 h-26 l-10 8 v-8 h-4 a10 10 0 0 1 -10 -10 v-16 a10 10 0 0 1 10 -10z" fill="#fff"/>
  <path d="M152 58 c-10 -7 -14 -11 -14 -16 a5 5 0 0 1 9 -3 l5 5 l5 -5 a5 5 0 0 1 9 3 c0 5 -4 9 -14 16z" fill="#f29a38"/>
  <circle cx="120" cy="84" r="3" fill="#ffd36b"/><circle cx="112" cy="96" r="2" fill="#ffd36b"/>
  <!-- 沙发 -->
  <rect x="22" y="112" width="140" height="44" rx="18" fill="#7cc39a"/>
  <rect x="14" y="104" width="26" height="54" rx="12" fill="#5daa7e"/>
  <rect x="148" y="104" width="26" height="54" rx="12" fill="#5daa7e"/>
  <path d="M40 158 v12 M150 158 v12" stroke="#3f8f5f" stroke-width="6" stroke-linecap="round"/>
  <!-- 腿 -->
  <path d="M70 124 h40 c12 0 16 8 16 16 v4 h-56z" fill="#3b4a6b"/>
  <path d="M112 140 h12 v26 h-12z" fill="#3b4a6b"/>
  <path d="M108 164 h22 a6 6 0 0 1 0 10 h-22z" fill="#fff"/>
  <!-- 身体：奶白上衣 -->
  <path d="M60 128 c-4 -30 8 -52 30 -52 s32 22 26 52z" fill="#fff4d6"/>
  <path d="M60 128 c-4 -30 8 -52 30 -52" fill="none" stroke="#f7c27a" stroke-width="0"/>
  <!-- 手臂 + 手机 -->
  <path d="M106 96 c8 2 14 8 16 16 l-8 4 c-2 -6 -6 -9 -10 -10z" fill="#ffe7b8"/>
  <rect x="112" y="96" width="14" height="22" rx="3" fill="#3b2a1e"/>
  <rect x="114" y="99" width="10" height="15" rx="1.5" fill="#ffd98a"/>
  <circle cx="116" cy="116" r="4.5" fill="#f6c9a0"/>
  <!-- 头 -->
  <rect x="84" y="62" width="12" height="16" rx="5" fill="#eab48a"/>
  <circle cx="90" cy="50" r="17" fill="#f6c9a0"/>
  <path d="M72 54 c-4 -18 6 -30 20 -30 c12 0 20 8 20 20 c-8 0 -16 -4 -20 -10 c-4 8 -12 14 -20 20z" fill="#3b2a1e"/>
  <path d="M70 52 c-2 14 2 26 8 30 c0 -10 -2 -20 -4 -28z" fill="#3b2a1e"/>
  <circle cx="92" cy="52" r="1.8" fill="#3b2a1e"/><circle cx="103" cy="52" r="1.8" fill="#3b2a1e"/>
  <path d="M94 59 q4 3 8 0" fill="none" stroke="#b5735a" stroke-width="1.6" stroke-linecap="round"/>
  <circle cx="88" cy="58" r="3" fill="#f29a8a" fill-opacity=".45"/><circle cx="106" cy="57" r="3" fill="#f29a8a" fill-opacity=".45"/>
  <ellipse cx="100" cy="176" rx="92" ry="4" fill="#e8a33d" fill-opacity=".18"/>
</svg>
